<?xml version="1.0" encoding="utf-8"?>
<!-- Generator: Adobe Illustrator 18.1.1, SVG Export Plug-In . SVG Version: 6.00 Build 0)  -->
<svg version="1.1" id="Layer_1" xmlns="http://www.w3.org/2000/svg" xmlns:xlink="http://www.w3.org/1999/xlink" x="0px" y="0px"
	 viewBox="0 0 28 28" enable-background="new 0 0 28 28" xml:space="preserve">
<g>
	<defs>
		<rect id="SVGID_31_" width="28" height="28"/>
	</defs>
	<clipPath id="SVGID_2_">
		<use xlink:href="#SVGID_31_"  overflow="visible"/>
	</clipPath>
	<!-- clip-path="url(#SVGID_2_)" -->
	<path fill="#F2C812" d="M15.3,16.9c-1-0.4-1.8-1-2.5-1.7c-0.7-0.7-1.3-1.5-1.7-2.5
		c-0.4-1-0.6-2-0.6-3.1c0-1.1,0.2-2.1,0.6-3.1c0.4-1,1-1.8,1.7-2.5c0.7-0.7,1.5-1.3,2.5-1.7c1-0.4,2-0.6,3.1-0.6
		c1.1,0,2.1,0.2,3.1,0.6c1,0.4,1.8,1,2.5,1.7c0.7,0.7,1.3,1.5,1.7,2.5c0.4,1,0.6,2,0.6,3.1c0,1.1-0.2,2.1-0.6,3.1
		c-0.4,1-1,1.8-1.7,2.5c-0.7,0.7-1.5,1.3-2.5,1.7c-1,0.4-2,0.6-3.1,0.6C17.3,17.5,16.3,17.3,15.3,16.9 M15.8,0.3
		c-0.8,0.2-1.6,0.6-2.3,1c-0.7,0.4-1.4,0.9-1.9,1.5c-0.6,0.6-1.1,1.2-1.5,1.9c-0.4,0.7-0.7,1.5-1,2.3C8.9,7.9,8.8,8.7,8.8,9.6
		c0,1.1,0.2,2.2,0.6,3.3c0.4,1,0.9,2,1.7,2.9L0.3,26.5C0.1,26.7,0,26.9,0,27.1c0,0.2,0.1,0.4,0.3,0.6C0.4,27.9,0.6,28,0.9,28
		c0.2,0,0.4-0.1,0.6-0.3L12.2,17c0.9,0.7,1.8,1.3,2.9,1.7c1,0.4,2.1,0.6,3.3,0.6c0.9,0,1.7-0.1,2.6-0.3c0.8-0.2,1.6-0.6,2.3-1
		c0.7-0.4,1.4-0.9,1.9-1.5c0.6-0.6,1.1-1.2,1.5-1.9c0.4-0.7,0.7-1.5,1-2.3c0.2-0.8,0.3-1.7,0.3-2.6c0-0.9-0.1-1.7-0.3-2.6
		c-0.2-0.8-0.6-1.6-1-2.3c-0.4-0.7-0.9-1.4-1.5-1.9c-0.6-0.6-1.2-1.1-1.9-1.5c-0.7-0.4-1.5-0.7-2.3-1C20.1,0.1,19.3,0,18.4,0
		C17.5,0,16.6,0.1,15.8,0.3"/>
</g>
</svg>