<?xml version="1.0" encoding="utf-8"?>
<!-- Generator: Adobe Illustrator 19.0.1, SVG Export Plug-In . SVG Version: 6.00 Build 0)  -->
<svg version="1.1" id="Layer_1" xmlns="http://www.w3.org/2000/svg" xmlns:xlink="http://www.w3.org/1999/xlink" x="0px" y="0px"
	 viewBox="0 0 115 45" enable-background="new 0 0 115 45" xml:space="preserve" preserveAspectRatio="xMinYMin">
<path fill="#231F20" d="M13.7,35.9c0,1.5-1.2,2.7-2.7,2.7s-2.7-1.2-2.7-2.7V24.2c0-1.5,1.2-2.7,2.7-2.7s2.7,1.2,2.7,2.7V35.9z"/>
<path fill="#231F20" d="M21.5,39.1c0,1.5-1.2,2.7-2.7,2.7c-1.5,0-2.7-1.2-2.7-2.7V21.2c0-1.5,1.2-2.7,2.7-2.7c1.5,0,2.7,1.2,2.7,2.7
	V39.1z"/>
<path fill="#231F20" d="M5.8,33.3c0,1.5-1.2,2.7-2.7,2.7s-2.7-1.2-2.7-2.7v-6.3c0-1.5,1.2-2.7,2.7-2.7s2.7,1.2,2.7,2.7V33.3z"/>
<path fill="#231F20" d="M29.4,41.9c0,1.5-1.2,2.7-2.7,2.7c-1.5,0-2.7-1.2-2.7-2.7V18.2c0-1.5,1.2-2.7,2.7-2.7c1.5,0,2.7,1.2,2.7,2.7
	V41.9z"/>
<path fill="#231F20" d="M37.9,40.7c-0.5,0-0.9-0.1-1.4-0.2l-3.4-1.1c-0.6-0.2-0.9-0.8-0.7-1.4c0.2-0.6,0.8-0.9,1.4-0.7l3.4,1.1
	c0.7,0.2,1.5,0.1,2-0.3c0.6-0.4,0.9-1.1,0.9-1.8V14.5c0-1-0.7-1.9-1.6-2.2L6.8,2.7C6.1,2.5,5.4,2.6,4.8,3C4.2,3.5,3.9,4.1,3.9,4.9
	v14.9c0,0.6-0.5,1.1-1.1,1.1c-0.6,0-1.1-0.5-1.1-1.1V4.9c0-1.4,0.7-2.7,1.8-3.6c1.1-0.8,2.6-1.1,3.9-0.7l31.8,9.7
	c1.9,0.6,3.2,2.3,3.2,4.3v21.7c0,1.4-0.7,2.7-1.8,3.6C39.8,40.4,38.9,40.7,37.9,40.7"/>
<line fill="none" stroke="#000000" stroke-width="2" stroke-linecap="round" x1="63.8" y1="16.3" x2="63.8" y2="28.7"/>
<line fill="none" stroke="#000000" stroke-width="2" stroke-linecap="round" x1="70" y1="22.5" x2="57.5" y2="22.5"/>
<path fill="#231F20" d="M97.9,34.5h4v-2h-4V34.5z M107.9,36.5h-16v-28h16V36.5z M91.9,6.5c-0.3,0-0.5,0.1-0.8,0.2
	c-0.2,0.1-0.5,0.2-0.6,0.4S90.1,7.5,90,7.7c-0.1,0.2-0.2,0.5-0.2,0.8v28c0,0.3,0.1,0.5,0.2,0.8c0.1,0.2,0.2,0.5,0.4,0.6
	s0.4,0.3,0.6,0.4c0.2,0.1,0.5,0.2,0.8,0.2h16c0.3,0,0.5-0.1,0.8-0.2c0.2-0.1,0.5-0.2,0.6-0.4c0.2-0.2,0.3-0.4,0.4-0.6
	c0.1-0.2,0.2-0.5,0.2-0.8v-28c0-0.3-0.1-0.5-0.2-0.8c-0.1-0.2-0.2-0.5-0.4-0.6c-0.2-0.2-0.4-0.3-0.6-0.4c-0.2-0.1-0.5-0.2-0.8-0.2
	H91.9z"/>
</svg>