<?xml version="1.0" encoding="utf-8"?>
<!-- Generator: Adobe Illustrator 19.0.1, SVG Export Plug-In . SVG Version: 6.00 Build 0)  -->
<svg version="1.1" id="Layer_1" xmlns="http://www.w3.org/2000/svg" xmlns:xlink="http://www.w3.org/1999/xlink" x="0px" y="0px"
	 viewBox="0 0 115 45" enable-background="new 0 0 115 45" xml:space="preserve" preserveAspectRatio="xMinYMin">
<path fill="#231F20" d="M13.2,35.9c0,1.5-1.2,2.7-2.7,2.7s-2.7-1.2-2.7-2.7V24.2c0-1.5,1.2-2.7,2.7-2.7s2.7,1.2,2.7,2.7V35.9z"/>
<path fill="#231F20" d="M21.1,39.1c0,1.5-1.2,2.7-2.7,2.7c-1.5,0-2.7-1.2-2.7-2.7V21.2c0-1.5,1.2-2.7,2.7-2.7c1.5,0,2.7,1.2,2.7,2.7
	V39.1z"/>
<path fill="#231F20" d="M5.4,33.3c0,1.5-1.2,2.7-2.7,2.7S0,34.7,0,33.3v-6.3c0-1.5,1.2-2.7,2.7-2.7s2.7,1.2,2.7,2.7V33.3z"/>
<path fill="#231F20" d="M28.9,41.9c0,1.5-1.2,2.7-2.7,2.7c-1.5,0-2.7-1.2-2.7-2.7V18.2c0-1.5,1.2-2.7,2.7-2.7c1.5,0,2.7,1.2,2.7,2.7
	V41.9z"/>
<path fill="#231F20" d="M37.5,40.7c-0.5,0-0.9-0.1-1.4-0.2l-3.4-1.1c-0.6-0.2-0.9-0.8-0.7-1.4c0.2-0.6,0.8-0.9,1.4-0.7l3.4,1.1
	c0.7,0.2,1.5,0.1,2-0.3c0.6-0.4,0.9-1.1,0.9-1.8V14.5c0-1-0.7-1.9-1.6-2.2L6.4,2.7C5.7,2.5,4.9,2.6,4.4,3C3.8,3.5,3.4,4.1,3.4,4.9
	v14.9c0,0.6-0.5,1.1-1.1,1.1c-0.6,0-1.1-0.5-1.1-1.1V4.9c0-1.4,0.7-2.7,1.8-3.6C4.2,0.5,5.7,0.2,7,0.6l31.8,9.7
	c1.9,0.6,3.2,2.3,3.2,4.3v21.7c0,1.4-0.7,2.7-1.8,3.6C39.3,40.4,38.4,40.7,37.5,40.7"/>
<line fill="none" stroke="#000000" stroke-width="2" stroke-linecap="round" x1="63.3" y1="16.3" x2="63.3" y2="28.7"/>
<line fill="none" stroke="#000000" stroke-width="2" stroke-linecap="round" x1="69.6" y1="22.5" x2="57.1" y2="22.5"/>
<path fill="#231F20" d="M85.9,12.9h27v14.6h-27V12.9z M83.8,10.8v18.7h14.6v2.1h-4.2v2.1h10.4v-2.1h-4.2v-2.1H115V10.8H83.8z"/>
</svg>